<?xml version="1.0" encoding="UTF-8" standalone="no"?>
<!-- Generator: Adobe Illustrator 16.0.0, SVG Export Plug-In . SVG Version: 6.00 Build 0)  -->

<svg
   xmlns:dc="http://purl.org/dc/elements/1.1/"
   xmlns:cc="http://creativecommons.org/ns#"
   xmlns:rdf="http://www.w3.org/1999/02/22-rdf-syntax-ns#"
   xmlns:svg="http://www.w3.org/2000/svg"
   xmlns="http://www.w3.org/2000/svg"
   xmlns:sodipodi="http://sodipodi.sourceforge.net/DTD/sodipodi-0.dtd"
   xmlns:inkscape="http://www.inkscape.org/namespaces/inkscape"
   version="1.1"
   id="Capa_1"
   x="0px"
   y="0px"
   width="435.05234"
   height="150.94669"
   viewBox="0 0 38.384872 13.318096"
   xml:space="preserve"
   sodipodi:docname="logo.svg"
   inkscape:version="0.92.1 r15371"><metadata
     id="metadata3719"><rdf:RDF><cc:Work
         rdf:about=""><dc:format>image/svg+xml</dc:format><dc:type
           rdf:resource="http://purl.org/dc/dcmitype/StillImage" /><dc:title></dc:title></cc:Work></rdf:RDF></metadata><defs
     id="defs3717" /><sodipodi:namedview
     pagecolor="#ffffff"
     bordercolor="#666666"
     borderopacity="1"
     objecttolerance="10"
     gridtolerance="10"
     guidetolerance="10"
     inkscape:pageopacity="0"
     inkscape:pageshadow="2"
     inkscape:window-width="1920"
     inkscape:window-height="1001"
     id="namedview3715"
     showgrid="false"
     inkscape:zoom="1.3046875"
     inkscape:cx="165.82615"
     inkscape:cy="22.66714"
     inkscape:window-x="-9"
     inkscape:window-y="-9"
     inkscape:window-maximized="1"
     inkscape:current-layer="g3682"
     fit-margin-top="0"
     fit-margin-left="0"
     fit-margin-right="0"
     fit-margin-bottom="0" /><g
     id="g3682"
     transform="translate(-2.842371,-14.541624)"><path
       style="fill:#f38630;fill-opacity:1;stroke-width:0.05363971"
       d="M 16.160467,21.200672 A 6.6590481,6.6590481 0 0 1 9.5014191,27.85972 6.6590481,6.6590481 0 0 1 2.842371,21.200672 6.6590481,6.6590481 0 0 1 9.5014191,14.541624 6.6590481,6.6590481 0 0 1 16.160467,21.200672 Z"
       id="path3721"
       inkscape:connector-curvature="0" /><g
       id="g4647"
       transform="matrix(0.17873331,0,0,0.17873331,5.4642804,17.163712)"><g
         id="g4591"><path
           id="path4589"
           d="m 41.573,15.879 v -1.675 c 0,-1.922 -1.558,-3.495 -3.479,-3.495 h -2.761 c -1.921,0 -3.479,1.573 -3.479,3.495 v 4.693 H 13.319 v -4.693 c 0,-1.922 -1.558,-3.495 -3.479,-3.495 H 7.079 c -1.921,0 -3.479,1.573 -3.479,3.495 v 1.675 c -1.979,0 -3.6,1.617 -3.6,3.613 v 6.172 c 0,1.996 1.71,3.613 3.6,3.613 v 1.674 c 0,1.922 1.558,3.513 3.479,3.513 H 9.84 c 1.921,0 3.479,-1.591 3.479,-3.513 v -4.676 h 18.536 v 4.676 c 0,1.922 1.558,3.513 3.479,3.513 h 2.762 c 1.92,0 3.479,-1.591 3.479,-3.513 v -1.674 c 1.979,0 3.6,-1.619 3.6,-3.613 v -6.172 c -0.003,-1.996 -1.713,-3.613 -3.602,-3.613 z"
           inkscape:connector-curvature="0"
           style="fill:#ffffff" /></g><g
         id="g4593" /><g
         id="g4595" /><g
         id="g4597" /><g
         id="g4599" /><g
         id="g4601" /><g
         id="g4603" /><g
         id="g4605" /><g
         id="g4607" /><g
         id="g4609" /><g
         id="g4611" /><g
         id="g4613" /><g
         id="g4615" /><g
         id="g4617" /><g
         id="g4619" /><g
         id="g4621" /></g><g
       aria-label="SÓ TREINO"
       style="font-style:normal;font-variant:normal;font-weight:normal;font-stretch:normal;font-size:7.55442095px;line-height:1.25;font-family:'Matthan Sans';-inkscape-font-specification:'Matthan Sans';letter-spacing:0px;word-spacing:0px;fill:#f38630;fill-opacity:1;stroke:none;stroke-width:0.18886052"
       id="text4651"><path
         d="m 19.021375,22.860579 h 0.737736 v 0.368868 q 0,0.368869 0.368869,0.368869 h 0.368868 q 0.368868,0 0.368868,-0.368869 v -0.737736 q 0,-0.368868 -0.368868,-0.368868 H 20.12798 q -1.106605,0 -1.106605,-1.106605 v -0.737736 q 0,-1.106605 1.106605,-1.106605 h 0.368868 q 1.106604,0 1.106604,1.106605 v 0.368868 h -0.737736 v -0.368868 q 0,-0.368869 -0.368868,-0.368869 H 20.12798 q -0.368869,0 -0.368869,0.368869 v 0.737736 q 0,0.368868 0.368869,0.368868 h 0.368868 q 1.106604,0 1.106604,1.106605 v 0.737736 q 0,1.106605 -1.106604,1.106605 H 20.12798 q -1.106605,0 -1.106605,-1.106605 z"
         style="font-style:normal;font-variant:normal;font-weight:normal;font-stretch:normal;font-family:'Matthan Sans';-inkscape-font-specification:'Matthan Sans';fill:#f38630;fill-opacity:1;stroke-width:0.18886052"
         id="path3926"
         inkscape:connector-curvature="0" /><path
         d="m 24.569153,23.229447 q 0,1.106605 -1.106605,1.106605 H 23.09368 q -1.106605,0 -1.106605,-1.106605 v -2.950945 q 0,-1.106605 1.106605,-1.106605 h 0.368868 q 1.106605,0 1.106605,1.106605 z m -1.844341,0 q 0,0.368869 0.368868,0.368869 h 0.368868 q 0.368868,0 0.368868,-0.368869 v -2.950945 q 0,-0.368869 -0.368868,-0.368869 H 23.09368 q -0.368868,0 -0.368868,0.368869 z m 0.221321,-4.426418 0.184434,-0.737737 h 0.81151 l -0.368868,0.737737 z"
         style="font-style:normal;font-variant:normal;font-weight:normal;font-stretch:normal;font-family:'Matthan Sans';-inkscape-font-specification:'Matthan Sans';fill:#f38630;fill-opacity:1;stroke-width:0.18886052"
         id="path3928"
         inkscape:connector-curvature="0" /><path
         d="m 28.641458,19.171897 v 0.737736 h -0.922171 v 4.426419 H 26.981551 V 19.909633 H 26.05938 v -0.737736 z"
         style="font-style:normal;font-variant:normal;font-weight:normal;font-stretch:normal;font-family:'Matthan Sans';-inkscape-font-specification:'Matthan Sans';fill:#f38630;fill-opacity:1;stroke-width:0.18886052"
         id="path3930"
         inkscape:connector-curvature="0" /><path
         d="m 30.485798,19.171897 q 1.106605,0 1.106605,1.106605 v 0.737736 q 0,0.627076 -0.553302,0.737736 0.553302,0.110661 0.553302,0.737737 v 1.844341 h -0.737736 v -1.844341 q 0,-0.368868 -0.368869,-0.368868 h -0.737736 v 2.213209 h -0.737736 v -5.164155 z m -0.737736,2.213209 h 0.737736 q 0.368869,0 0.368869,-0.368868 v -0.737736 q 0,-0.368869 -0.368869,-0.368869 h -0.737736 z"
         style="font-style:normal;font-variant:normal;font-weight:normal;font-stretch:normal;font-family:'Matthan Sans';-inkscape-font-specification:'Matthan Sans';fill:#f38630;fill-opacity:1;stroke-width:0.18886052"
         id="path3932"
         inkscape:connector-curvature="0" /><path
         d="m 34.189235,19.171897 v 0.737736 h -1.475473 v 1.475473 h 1.291039 v 0.737737 h -1.291039 v 1.475473 h 1.475473 v 0.737736 h -2.213209 v -5.164155 z"
         style="font-style:normal;font-variant:normal;font-weight:normal;font-stretch:normal;font-family:'Matthan Sans';-inkscape-font-specification:'Matthan Sans';fill:#f38630;fill-opacity:1;stroke-width:0.18886052"
         id="path3934"
         inkscape:connector-curvature="0" /><path
         d="m 35.29584,19.171897 v 5.164155 h -0.737736 v -5.164155 z"
         style="font-style:normal;font-variant:normal;font-weight:normal;font-stretch:normal;font-family:'Matthan Sans';-inkscape-font-specification:'Matthan Sans';fill:#f38630;fill-opacity:1;stroke-width:0.18886052"
         id="path3936"
         inkscape:connector-curvature="0" /><path
         d="M 35.679464,24.336052 V 19.171897 H 36.4172 l 1.106605,3.098493 v -3.098493 h 0.737736 v 5.164155 H 37.523805 L 36.4172,21.200672 v 3.13538 z"
         style="font-style:normal;font-variant:normal;font-weight:normal;font-stretch:normal;font-family:'Matthan Sans';-inkscape-font-specification:'Matthan Sans';fill:#f38630;fill-opacity:1;stroke-width:0.18886052"
         id="path3938"
         inkscape:connector-curvature="0" /><path
         d="m 41.227241,23.229447 q 0,1.106605 -1.106604,1.106605 h -0.368869 q -1.106604,0 -1.106604,-1.106605 v -2.950945 q 0,-1.106605 1.106604,-1.106605 h 0.368869 q 1.106604,0 1.106604,1.106605 z m -1.844341,0 q 0,0.368869 0.368868,0.368869 h 0.368869 q 0.368868,0 0.368868,-0.368869 v -2.950945 q 0,-0.368869 -0.368868,-0.368869 h -0.368869 q -0.368868,0 -0.368868,0.368869 z"
         style="font-style:normal;font-variant:normal;font-weight:normal;font-stretch:normal;font-family:'Matthan Sans';-inkscape-font-specification:'Matthan Sans';fill:#f38630;fill-opacity:1;stroke-width:0.18886052"
         id="path3940"
         inkscape:connector-curvature="0" /></g></g><g
     id="g3684"
     transform="translate(-2.842371,-14.541624)" /><g
     id="g3686"
     transform="translate(-2.842371,-14.541624)" /><g
     id="g3688"
     transform="translate(-2.842371,-14.541624)" /><g
     id="g3690"
     transform="translate(-2.842371,-14.541624)" /><g
     id="g3692"
     transform="translate(-2.842371,-14.541624)" /><g
     id="g3694"
     transform="translate(-2.842371,-14.541624)" /><g
     id="g3696"
     transform="translate(-2.842371,-14.541624)" /><g
     id="g3698"
     transform="translate(-2.842371,-14.541624)" /><g
     id="g3700"
     transform="translate(-2.842371,-14.541624)" /><g
     id="g3702"
     transform="translate(-2.842371,-14.541624)" /><g
     id="g3704"
     transform="translate(-2.842371,-14.541624)" /><g
     id="g3706"
     transform="translate(-2.842371,-14.541624)" /><g
     id="g3708"
     transform="translate(-2.842371,-14.541624)" /><g
     id="g3710"
     transform="translate(-2.842371,-14.541624)" /><g
     id="g3712"
     transform="translate(-2.842371,-14.541624)" /></svg>